<svg version="1.2" xmlns="http://www.w3.org/2000/svg" viewBox="0 0 880 544" width="880" height="544">
	<title>New Project</title>
	<style>
		.s0 { fill: #000000 } 
	</style>
	<path id="Shape 1" class="s0" d="m140 22c22.1 0 40 17.9 40 40v420c0 22.1-17.9 40-40 40-22.1 0-40-17.9-40-40v-420c0-22.1 17.9-40 40-40zm0 0c22.1 0 40 17.9 40 40v420c0 22.1-17.9 40-40 40-22.1 0-40-17.9-40-40v-420c0-22.1 17.9-40 40-40z"/>
	<path id="Shape 1 copy 5" class="s0" d="m777 221c0 19.3-15.7 35-35 35h-310c-19.3 0-35-15.7-35-35 0-19.3 15.7-35 35-35h310c19.3 0 35 15.7 35 35zm0 0c0 19.3-15.7 35-35 35h-310c-19.3 0-35-15.7-35-35 0-19.3 15.7-35 35-35h310c19.3 0 35 15.7 35 35z"/>
	<path id="Shape 1 copy 6" class="s0" d="m447.1 190.7c16.8 9.7 22.5 31.1 12.8 47.8l-90 155.9c-9.6 16.8-31 22.5-47.8 12.8-16.7-9.6-22.5-31-12.8-47.8l90-155.9c9.7-16.7 31.1-22.4 47.8-12.8zm0 0c16.8 9.7 22.5 31.1 12.8 47.8l-90 155.9c-9.6 16.8-31 22.5-47.8 12.8-16.7-9.6-22.5-31-12.8-47.8l90-155.9c9.7-16.7 31.1-22.4 47.8-12.8z"/>
	<path id="Shape 1 copy 4" class="s0" d="m283.5 64.8c19-3.3 37.2 9.4 40.5 28.4l48.7 275.8c3.3 19-9.4 37.2-28.4 40.5-19.1 3.4-37.2-9.3-40.6-28.4l-48.6-275.7c-3.4-19.1 9.4-37.2 28.4-40.6zm0 0c19-3.3 37.2 9.4 40.5 28.4l48.7 275.8c3.3 19-9.4 37.2-28.4 40.5-19.1 3.4-37.2-9.3-40.6-28.4l-48.6-275.7c-3.4-19.1 9.4-37.2 28.4-40.6z"/>
	<path id="Shape 1 copy 2" class="s0" d="m40 122c22.1 0 40 17.9 40 40v220c0 22.1-17.9 40-40 40-22.1 0-40-17.9-40-40v-220c0-22.1 17.9-40 40-40zm0 0c22.1 0 40 17.9 40 40v220c0 22.1-17.9 40-40 40-22.1 0-40-17.9-40-40v-220c0-22.1 17.9-40 40-40z"/>
	<path id="Shape 1 copy 3" class="s0" d="m840 120c22.1 0 40 17.9 40 40v220c0 22.1-17.9 40-40 40-22.1 0-40-17.9-40-40v-220c0-22.1 17.9-40 40-40zm0 0c22.1 0 40 17.9 40 40v220c0 22.1-17.9 40-40 40-22.1 0-40-17.9-40-40v-220c0-22.1 17.9-40 40-40z"/>
	<path id="Shape 1 copy" class="s0" d="m740 22c22.1 0 40 17.9 40 40v420c0 22.1-17.9 40-40 40-22.1 0-40-17.9-40-40v-420c0-22.1 17.9-40 40-40zm0 0c22.1 0 40 17.9 40 40v420c0 22.1-17.9 40-40 40-22.1 0-40-17.9-40-40v-420c0-22.1 17.9-40 40-40z"/>
	<path id="Shape 2" class="s0" d="m115.1 253.8l147.8-176.2c12.4-14.8 34.5-16.8 49.3-4.4 14.8 12.5 16.8 34.6 4.3 49.4l-147.8 176.1c-12.4 14.9-34.5 16.8-49.3 4.4-14.8-12.5-16.8-34.5-4.3-49.3zm0 0l147.8-176.2c12.4-14.8 34.5-16.8 49.3-4.4 14.8 12.5 16.8 34.6 4.3 49.4l-147.8 176.1c-12.4 14.9-34.5 16.8-49.3 4.4-14.8-12.5-16.8-34.5-4.3-49.3zm0 0l147.8-176.2c12.4-14.8 34.5-16.8 49.3-4.4 14.8 12.5 16.8 34.6 4.3 49.4l-147.8 176.1c-12.4 14.9-34.5 16.8-49.3 4.4-14.8-12.5-16.8-34.5-4.3-49.3z"/>
</svg>