<svg width="12" height="17" viewBox="0 0 12 17" fill="none" xmlns="http://www.w3.org/2000/svg">
<path d="M4.8 1.43437L5.3 0.76875C5.425 0.6 5.625 0.5 5.83437 0.5C6.2 0.5 6.5 0.8 6.5 1.16562V1.85938C6.5 2.26875 6.66875 2.6625 6.96562 2.94375L9.6125 5.46875C11.1375 6.925 12 8.94375 12 11.0531C12 14.0625 9.5625 16.5 6.55312 16.5H6C2.6875 16.5 0 13.8125 0 10.5V10.3813C0 8.85625 0.60625 7.39375 1.68438 6.31563L1.79375 6.20625C1.925 6.075 2.10625 6 2.29375 6C2.68438 6 3 6.31563 3 6.70625V9.5C3 10.6031 3.89687 11.5 5 11.5C6.10313 11.5 7 10.6031 7 9.5V9.37813C7 8.81563 6.775 8.275 6.37813 7.87813L5.17188 6.67188C4.42188 5.92188 4 4.9 4 3.8375C4 2.97188 4.28125 2.125 4.8 1.43437Z" fill="#FF9500"/>
</svg>
