<svg width="12" height="13" viewBox="0 0 12 13" fill="none" xmlns="http://www.w3.org/2000/svg">
<g clip-path="url(#clip0_3907_3678)">
<path d="M4.5 0.708557C4.57302 0.797609 4.61776 0.906461 4.62845 1.02113C4.63914 1.13579 4.6153 1.25104 4.56 1.35206C4.12615 2.14807 3.89969 3.0405 3.9015 3.94706C3.9015 6.96281 6.36 9.40481 9.39 9.40481C9.786 9.40431 10.1693 9.36431 10.5398 9.28481C10.6531 9.26056 10.7711 9.27009 10.879 9.31222C10.987 9.35434 11.0803 9.42721 11.1473 9.52181C11.2181 9.62025 11.2543 9.73943 11.2501 9.86065C11.2459 9.98187 11.2015 10.0983 11.124 10.1916C10.5357 10.9141 9.79364 11.4963 8.95184 11.8956C8.11004 12.295 7.18973 12.5015 6.258 12.5001C2.8005 12.5001 0 9.71456 0 6.28256C0 3.69956 1.5855 1.48406 3.843 0.545057C3.95541 0.497282 4.08032 0.487396 4.19885 0.516893C4.31738 0.54639 4.42309 0.613667 4.5 0.708557Z" fill="#AF52DE"/>
<path d="M8.09511 2.8611C8.10587 2.82862 8.12659 2.80035 8.15432 2.78032C8.18206 2.76029 8.2154 2.74951 8.24961 2.74951C8.28383 2.74951 8.31717 2.76029 8.34491 2.78032C8.37264 2.80035 8.39336 2.82862 8.40411 2.8611L8.69436 3.7326C8.82411 4.1211 9.12861 4.4256 9.51711 4.55535L10.3886 4.8456C10.4211 4.85635 10.4494 4.87707 10.4694 4.90481C10.4894 4.93254 10.5002 4.96588 10.5002 5.0001C10.5002 5.03431 10.4894 5.06765 10.4694 5.09539C10.4494 5.12313 10.4211 5.14384 10.3886 5.1546L9.51711 5.44485C9.32539 5.50848 9.15118 5.61599 9.00834 5.75883C8.86551 5.90166 8.75799 6.07588 8.69436 6.2676L8.40411 7.1391C8.39336 7.17158 8.37264 7.19984 8.34491 7.21987C8.31717 7.23991 8.28383 7.25069 8.24961 7.25069C8.2154 7.25069 8.18206 7.23991 8.15432 7.21987C8.12659 7.19984 8.10587 7.17158 8.09511 7.1391L7.80486 6.2676C7.74123 6.07588 7.63372 5.90166 7.49088 5.75883C7.34805 5.61599 7.17383 5.50848 6.98211 5.44485L6.11061 5.1546C6.07813 5.14384 6.04987 5.12313 6.02984 5.09539C6.00981 5.06765 5.99902 5.03431 5.99902 5.0001C5.99902 4.96588 6.00981 4.93254 6.02984 4.90481C6.04987 4.87707 6.07813 4.85635 6.11061 4.8456L6.98211 4.55535C7.17383 4.49172 7.34805 4.38421 7.49088 4.24137C7.63372 4.09853 7.74123 3.92432 7.80486 3.7326L8.09511 2.8611ZM10.3969 0.574348C10.4043 0.552992 10.4181 0.534475 10.4366 0.521369C10.455 0.508263 10.477 0.501221 10.4996 0.501221C10.5222 0.501221 10.5443 0.508263 10.5627 0.521369C10.5811 0.534475 10.595 0.552992 10.6024 0.574348L10.7959 1.15485C10.8821 1.41435 11.0854 1.6176 11.3449 1.70385L11.9254 1.89735C11.9467 1.90475 11.9652 1.91863 11.9783 1.93704C11.9914 1.95545 11.9985 1.9775 11.9985 2.0001C11.9985 2.0227 11.9914 2.04474 11.9783 2.06316C11.9652 2.08157 11.9467 2.09544 11.9254 2.10285L11.3449 2.29635C11.2171 2.3391 11.101 2.41094 11.0057 2.50621C10.9105 2.60148 10.8386 2.71758 10.7959 2.84535L10.6024 3.42585C10.595 3.4472 10.5811 3.46572 10.5627 3.47883C10.5443 3.49193 10.5222 3.49897 10.4996 3.49897C10.477 3.49897 10.455 3.49193 10.4366 3.47883C10.4181 3.46572 10.4043 3.4472 10.3969 3.42585L10.2034 2.84535C10.1606 2.71758 10.0888 2.60148 9.9935 2.50621C9.89823 2.41094 9.78214 2.3391 9.65436 2.29635L9.07386 2.10285C9.05251 2.09544 9.03399 2.08157 9.02088 2.06316C9.00778 2.04474 9.00074 2.0227 9.00074 2.0001C9.00074 1.9775 9.00778 1.95545 9.02088 1.93704C9.03399 1.91863 9.05251 1.90475 9.07386 1.89735L9.65436 1.70385C9.91386 1.6176 10.1171 1.41435 10.2034 1.15485L10.3969 0.574348Z" fill="#AF52DE"/>
</g>
<defs>
<clipPath id="clip0_3907_3678">
<rect width="12" height="12" fill="white" transform="translate(0 0.5)"/>
</clipPath>
</defs>
</svg>
