<svg width="16" height="17" viewBox="0 0 16 17" fill="none" xmlns="http://www.w3.org/2000/svg">
<g clip-path="url(#clip0_3907_3669)">
<path d="M9.5002 3.5C10.3283 3.5 11.0002 2.82812 11.0002 2C11.0002 1.17188 10.3283 0.5 9.5002 0.5C8.67207 0.5 8.0002 1.17188 8.0002 2C8.0002 2.82812 8.67207 3.5 9.5002 3.5ZM12.4533 8.15938L11.7252 7.79063L11.4221 6.87187C10.9627 5.47812 9.68145 4.50313 8.22832 4.5C7.10332 4.49687 6.48145 4.81562 5.3127 5.2875C4.6377 5.55937 4.08457 6.075 3.75957 6.73125L3.5502 7.15625C3.30645 7.65 3.50332 8.25 3.99395 8.49687C4.48145 8.74375 5.0752 8.54375 5.32207 8.05L5.53145 7.625C5.64082 7.40625 5.82207 7.23438 6.04707 7.14375L6.88457 6.80625L6.40957 8.70312C6.24707 9.35312 6.42207 10.0437 6.8752 10.5406L8.74707 12.5844C8.97207 12.8313 9.13145 13.1281 9.2127 13.45L9.78457 15.7406C9.91895 16.275 10.4627 16.6031 10.9971 16.4688C11.5314 16.3344 11.8596 15.7906 11.7252 15.2563L11.0314 12.475C10.9502 12.1531 10.7908 11.8531 10.5658 11.6094L9.14395 10.0562L9.68145 7.90938L9.85332 8.425C10.0189 8.92813 10.3752 9.34375 10.8439 9.58125L11.5721 9.95C12.0596 10.1969 12.6533 9.99688 12.9002 9.50313C13.1408 9.0125 12.9439 8.40625 12.4533 8.15938ZM5.3002 12.5562C5.2002 12.8094 5.0502 13.0375 4.85645 13.2281L3.29395 14.7937C2.90332 15.1844 2.90332 15.8188 3.29395 16.2094C3.68457 16.6 4.31582 16.6 4.70645 16.2094L6.5627 14.3531C6.75332 14.1625 6.90332 13.9344 7.00645 13.6812L7.42832 12.625C5.7002 10.7406 6.21895 11.3187 5.94707 10.9469L5.3002 12.5562Z" fill="#FFCC00"/>
</g>
<defs>
<clipPath id="clip0_3907_3669">
<rect width="16" height="16" fill="white" transform="translate(0 0.5)"/>
</clipPath>
</defs>
</svg>
