<svg width="16" height="16" viewBox="0 0 16 16" fill="none" xmlns="http://www.w3.org/2000/svg">
<path d="M13.5159 6.57898L11.2217 3.30237L12.3139 2.5376L14.6081 5.8142L13.5159 6.57898Z" fill="#0D1A26"/>
<path d="M12.2598 8.27224L11.1126 6.63398L5.6516 10.4578L6.79871 12.0961L5.70653 12.8609L2.64746 8.49204L3.73966 7.72731L4.88683 9.36564L10.3478 5.54178L9.20071 3.90344L10.2929 3.13867L13.352 7.50751L12.2598 8.27224Z" fill="black"/>
<path d="M13.8429 4.72221L14.9351 3.95744L14.1703 2.86523L13.0781 3.63L13.8429 4.72221Z" fill="black"/>
<path d="M4.77811 12.6976L2.4838 9.4209L1.3916 10.1857L3.68591 13.4623L4.77811 12.6976Z" fill="black"/>
<path d="M2.92143 12.37L1.82922 13.1348L1.06445 12.0426L2.15665 11.2778L2.92143 12.37Z" fill="black"/>
</svg>
